<?xml version="1.0" encoding="UTF-8"?>
<!-- Generated by Pixelmator Pro 3.6.15 -->
<svg width="448" height="320" viewBox="0 0 448 320" xmlns="http://www.w3.org/2000/svg">
    <path id="Path" fill="#ffffff" stroke="none" d="M 114.378998 317 C 107.843994 317 106.285995 306 114 306 C 158.472 304.72699 149.522003 294.13501 152 260 L 152 76 L 45 202 L 139.936996 202 L 139.936996 235 L 13.681999 235 C -0.888 235 -3.125 227.846985 7.398998 215.616028 L 183 6.216003 C 186.867004 1.863007 190.225998 0.070007 193.447998 0.135986 C 201.169998 0.447998 198.751007 5.471008 211.860992 4.371002 C 234.903992 3.623993 302.381989 1.541992 330.471008 10.511993 C 387.123993 21.842987 444.820007 62.786987 447.031006 156.401001 C 448.105988 201.080994 427.937012 250.64801 387.496002 282.494019 C 357.925995 305.778992 317.524994 318.275024 266.635986 319 C 248.36499 319.26001 209.093002 316.393982 175.089005 316.072021 C 140.285995 315.742004 136.326996 317 114.378998 317 Z M 230 202 C 236.354004 202 242.362 198.476013 246.209015 197.846985 C 249.274994 197.344971 251.342987 200.223999 250 207.104004 C 248.656006 213.982971 245 225.55603 245 225.55603 C 243.506989 231.229004 240.67099 235 232.161011 235 L 203 235 C 203 235 202.005005 277.208008 210.216003 283.982971 C 225.145004 298.109009 247.143005 298.052979 274.378998 298.052979 C 306.742004 298.052979 342.338989 285.33197 363.867004 261.65802 C 384.726013 238.719971 392.04599 205.560974 390.843994 159.890991 C 389.263 99.798004 357.752991 59.852997 310.959991 37.845001 C 269.734985 18.454987 214.100006 24.821991 214.100006 24.821991 C 206.682999 25.459991 202.214996 28.459991 202 34.868011 L 202 202 L 230 202 Z"/>
</svg>
